#usda 1.0

over "World"
{
    def Xform "restroom_01"
    {
        double3 xformOp:rotateXYZ = (0, 0, 0)
        double3 xformOp:scale = (1, 1, 1)
        double3 xformOp:translate = (1676.8018897403745, 2265.3388923714356, -3521.8355576232407)
        uniform token[] xformOpOrder = ["xformOp:translate", "xformOp:rotateXYZ", "xformOp:scale"]
    }

    def Xform "restroom_02"
    {
        double3 xformOp:rotateXYZ = (0, 0, 0)
        double3 xformOp:scale = (1, 1, 1)
        double3 xformOp:translate = (-2253.0237083189295, 2261.800048828126, -2931.7179435746075)
        uniform token[] xformOpOrder = ["xformOp:translate", "xformOp:rotateXYZ", "xformOp:scale"]
    }

    def Xform "restroom_03"
    {
        float3 xformOp:rotateXYZ = (0, 0, 0)
        float3 xformOp:scale = (1, 1, 1)
        double3 xformOp:translate = (2852.441650390625, 2371.801025390625, -2517.554443359375)
        uniform token[] xformOpOrder = ["xformOp:translate", "xformOp:rotateXYZ", "xformOp:scale"]
    }

    def Xform "restroom_05"
    {
        double3 xformOp:rotateXYZ = (0, 0, 0)
        double3 xformOp:scale = (1, 1, 1)
        double3 xformOp:translate = (-3608.3180808775287, 2371.801025390626, 259.09699783177166)
        uniform token[] xformOpOrder = ["xformOp:translate", "xformOp:rotateXYZ", "xformOp:scale"]
    }

    def Xform "restroom_06"
    {
        double3 xformOp:rotateXYZ = (0, 0, 0)
        double3 xformOp:scale = (1, 1, 1)
        double3 xformOp:translate = (-3514.175991033764, 2371.801025390625, 1365.5393806443699)
        uniform token[] xformOpOrder = ["xformOp:translate", "xformOp:rotateXYZ", "xformOp:scale"]
    }

    def Xform "restroom_07"
    {
        double3 xformOp:rotateXYZ = (0, 0, 0)
        double3 xformOp:scale = (1, 1, 1)
        double3 xformOp:translate = (-2412.5579053307506, 2383.4978366386094, 3818.8828532579478)
        uniform token[] xformOpOrder = ["xformOp:translate", "xformOp:rotateXYZ", "xformOp:scale"]
    }

    def Xform "restroom_08"
    {
        double3 xformOp:rotateXYZ = (0, 0, 0)
        double3 xformOp:scale = (1, 1, 1)
        double3 xformOp:translate = (4095.641845703125, 2371.801025390625, 1056.7962681577906)
        uniform token[] xformOpOrder = ["xformOp:translate", "xformOp:rotateXYZ", "xformOp:scale"]
    }

    def Xform "restroom_09"
    {
        double3 xformOp:rotateXYZ = (0, 0, 0)
        double3 xformOp:scale = (1, 1, 1)
        double3 xformOp:translate = (3971.008056640625, 2371.801025390625, -56.26007505168867)
        uniform token[] xformOpOrder = ["xformOp:translate", "xformOp:rotateXYZ", "xformOp:scale"]
    }

    def Xform "restroom_10"
    {
        float3 xformOp:rotateXYZ = (0, 180, 0)
        float3 xformOp:scale = (1, 1, 1)
        double3 xformOp:translate = (-3144.9013671875, 2374.801025390625, -1751.876220703125)
        uniform token[] xformOpOrder = ["xformOp:translate", "xformOp:rotateXYZ", "xformOp:scale"]
    }

    def Xform "restroom_11"
    {
        float3 xformOp:rotateXYZ = (0, 0, 0)
        float3 xformOp:scale = (1, 1, 1)
        double3 xformOp:translate = (3905.69482421875, 2371.801025390625, -699.7007446289062)
        uniform token[] xformOpOrder = ["xformOp:translate", "xformOp:rotateXYZ", "xformOp:scale"]
    }

    def Xform "restroom_12"
    {
        float3 xformOp:rotateXYZ = (0, 0, 0)
        float3 xformOp:scale = (1, 1, 1)
        double3 xformOp:translate = (3967.193115234375, 2371.801025390625, -499.7059631347656)
        uniform token[] xformOpOrder = ["xformOp:translate", "xformOp:rotateXYZ", "xformOp:scale"]
    }

    def Xform "restroom_13"
    {
        float3 xformOp:rotateXYZ = (0, 0, 0)
        float3 xformOp:scale = (1, 1, 1)
        double3 xformOp:translate = (-2316.49169921875, 1923.7999267578125, -4544.5322265625)
        uniform token[] xformOpOrder = ["xformOp:translate", "xformOp:rotateXYZ", "xformOp:scale"]
    }

    def Xform "restroom_14"
    {
        float3 xformOp:rotateXYZ = (0, 0, 0)
        float3 xformOp:scale = (1, 1, 1)
        double3 xformOp:translate = (3487.904541015625, 2371.801025390625, 3709.955322265625)
        uniform token[] xformOpOrder = ["xformOp:translate", "xformOp:rotateXYZ", "xformOp:scale"]
    }

    def Xform "restroom_15"
    {
        float3 xformOp:rotateXYZ = (0, 0, 0)
        float3 xformOp:scale = (1, 1, 1)
        double3 xformOp:translate = (-1493.80810546875, 2371.801025390625, 5128.5703125)
        uniform token[] xformOpOrder = ["xformOp:translate", "xformOp:rotateXYZ", "xformOp:scale"]
    }
}

