#usda 1.0

over "World"
{
    def Xform "spatial_sound_01"
    {
        float3 xformOp:rotateXYZ = (0, 298.93588, 0)
        float3 xformOp:scale = (1, 1, 1)
        double3 xformOp:translate = (-5069.21630859375, 2332.102294921875, -5424.994140625)
        uniform token[] xformOpOrder = ["xformOp:translate", "xformOp:rotateXYZ", "xformOp:scale"]
    }

    def Xform "spatial_sound_02"
    {
        float3 xformOp:rotateXYZ = (0, 189, 0)
        float3 xformOp:scale = (1, 1, 1)
        double3 xformOp:translate = (-1215.3990478515625, 2369.800048828125, -4821.9970703125)
        uniform token[] xformOpOrder = ["xformOp:translate", "xformOp:rotateXYZ", "xformOp:scale"]
    }

    def Xform "spatial_sound_12"
    {
        float3 xformOp:rotateXYZ = (0, -82, 0)
        float3 xformOp:scale = (1, 1, 1)
        double3 xformOp:translate = (-1896.423095703125, 2301.801025390625, 603.6911926269531)
        uniform token[] xformOpOrder = ["xformOp:translate", "xformOp:rotateXYZ", "xformOp:scale"]
    }

    def Xform "spatial_sound_05"
    {
        float3 xformOp:rotateXYZ = (0, 0, 0)
        float3 xformOp:scale = (1, 1, 1)
        double3 xformOp:translate = (-3766.523193359375, 2467.801025390625, 118.50434112548828)
        uniform token[] xformOpOrder = ["xformOp:translate", "xformOp:rotateXYZ", "xformOp:scale"]
    }

    def Xform "spatial_sound_07"
    {
        float3 xformOp:rotateXYZ = (0, -83, 0)
        float3 xformOp:scale = (1, 1, 1)
        double3 xformOp:translate = (-2429.49560546875, 2467.801025390625, 739.9688720703125)
        uniform token[] xformOpOrder = ["xformOp:translate", "xformOp:rotateXYZ", "xformOp:scale"]
    }

    def Xform "spatial_sound_08"
    {
        float3 xformOp:rotateXYZ = (0, -75, 0)
        float3 xformOp:scale = (1, 1, 1)
        double3 xformOp:translate = (-4172.1005859375, 3448.89990234375, 960.3067626953125)
        uniform token[] xformOpOrder = ["xformOp:translate", "xformOp:rotateXYZ", "xformOp:scale"]
    }

    def Xform "spatial_sound_11"
    {
        float3 xformOp:rotateXYZ = (0, -67, 0)
        float3 xformOp:scale = (1, 1, 1)
        double3 xformOp:translate = (-3389.1552734375, 2956.7998046875, 3539.3447265625)
        uniform token[] xformOpOrder = ["xformOp:translate", "xformOp:rotateXYZ", "xformOp:scale"]
    }

    def Xform "spatial_sound_09"
    {
        float3 xformOp:rotateXYZ = (0, 3, 0)
        float3 xformOp:scale = (1, 1, 1)
        double3 xformOp:translate = (782.261474609375, 2471.801025390625, 4802.42041015625)
        uniform token[] xformOpOrder = ["xformOp:translate", "xformOp:rotateXYZ", "xformOp:scale"]
    }
}

