<svg width="30" height="35" viewBox="0 0 30 35" fill="none" xmlns="http://www.w3.org/2000/svg">
<path d="M0 35V18.4187L2.58333 10.75C2.80556 10.1111 3.17361 9.61806 3.6875 9.27083C4.20139 8.92361 4.76903 8.75 5.39042 8.75C5.5893 8.75 5.78805 8.76792 5.98667 8.80375C6.18555 8.8393 6.38444 8.90472 6.58333 9L13.5833 12.0833H17.5V14.5833H13L8.16667 12.4583L5.83333 19.5V35H0ZM10.4167 29.5833V27.0833H30V29.5833H10.4167ZM27.5 25C26.8056 25 26.2153 24.7569 25.7292 24.2708C25.2431 23.7847 25 23.1944 25 22.5C25 21.8056 25.2431 21.2153 25.7292 20.7292C26.2153 20.2431 26.8056 20 27.5 20C28.1944 20 28.7847 20.2431 29.2708 20.7292C29.7569 21.2153 30 21.8056 30 22.5C30 23.1944 29.7569 23.7847 29.2708 24.2708C28.7847 24.7569 28.1944 25 27.5 25ZM16.25 24.5833C15.5625 24.5833 14.974 24.3385 14.4846 23.8487C13.9949 23.3593 13.75 22.7708 13.75 22.0833V19.5833H10.4167V17.0833H15.0075C15.3636 17.0833 15.6597 17.2031 15.8958 17.4425C16.1319 17.6822 16.25 17.9792 16.25 18.3333V20.4167H21.25V17.0833H23.75V22.0833C23.75 22.7708 23.5053 23.3593 23.0158 23.8487C22.5261 24.3385 21.9375 24.5833 21.25 24.5833H16.25ZM8.045 6.08333C7.20944 6.08333 6.49306 5.78583 5.89583 5.19083C5.29861 4.59583 5 3.88056 5 3.045C5 2.20945 5.2975 1.49306 5.8925 0.895833C6.4875 0.298611 7.20278 0 8.03833 0C8.87389 0 9.59028 0.297499 10.1875 0.892499C10.7847 1.4875 11.0833 2.20278 11.0833 3.03833C11.0833 3.87389 10.7858 4.59028 10.1908 5.1875C9.59583 5.78472 8.88056 6.08333 8.045 6.08333Z" fill="#351A84"/>
</svg>
