<svg width="38" height="36" viewBox="0 0 38 36" fill="none" xmlns="http://www.w3.org/2000/svg">
<path d="M29.9006 23.7999L35.3193 27.7467C36.3524 28.5182 36.6529 29.8585 35.8689 30.9497C35.7904 31.0585 35.3076 31.4455 35.3237 31.5129C35.532 31.6563 35.7756 31.6978 36.0043 31.822C37.5252 32.6436 37.8244 34.7122 36.7011 35.9969L0.791345 36C0.537872 35.9691 0.263379 35.4288 0.178064 35.1914C-0.231821 34.0433 0.0698739 32.7908 1.04235 32.0396C1.35022 31.8016 1.72487 31.6934 2.0618 31.5135C2.07664 31.4517 1.63337 31.1005 1.54187 30.9837C-0.228112 28.7111 2.93907 27.1661 4.40736 26.07C5.45525 25.288 6.50871 24.5072 7.53188 23.6923L7.56155 16.7979C7.82059 14.1302 9.92751 12.1241 12.6001 11.9448C16.7237 11.6678 21.2361 12.0944 25.3838 12.0251C31.3738 13.2443 29.448 19.1453 29.8177 23.4803C29.827 23.5922 29.8233 23.7084 29.9 23.8005L29.9006 23.7999ZM12.8196 31.916V16.9858C12.8196 16.8084 12.0604 16.5209 11.9596 17.2387C11.8292 19.6881 12.1129 22.284 11.9565 24.7161C11.8793 25.9161 11.4786 26.3 10.5896 26.9968C8.68054 28.4947 6.63359 29.8313 4.71709 31.3262C4.6361 31.3893 4.53471 31.3893 4.47289 31.4529C4.43703 31.576 4.79746 31.6001 4.87597 31.6063C6.46605 31.7299 8.16 31.6458 9.76182 31.7281L12.8196 31.916ZM24.5659 16.9858V31.916C25.5415 31.8165 26.5238 31.8307 27.5019 31.7917C28.1312 31.7664 28.7865 31.6903 29.4165 31.6662C30.4378 31.6267 31.6359 31.7058 32.6344 31.6075C32.7185 31.5995 32.9472 31.5846 32.9126 31.4536C32.9002 31.4078 32.7413 31.3837 32.6684 31.3268C30.5881 29.7058 28.4193 28.198 26.3025 26.6258C25.683 26.083 25.4784 25.5297 25.4296 24.7167C25.2824 22.2772 25.5495 19.6943 25.4265 17.2393C25.3424 16.6396 24.6531 16.6841 24.5665 16.9864L24.5659 16.9858ZM18.6878 0C16.0517 0 13.9145 2.18111 13.9145 4.87225C13.9145 7.56339 16.0517 9.7445 18.6878 9.7445C21.3239 9.7445 23.4611 7.56339 23.4611 4.87225C23.4611 2.18111 21.3239 0 18.6878 0Z" fill="#351A84"/>
</svg>
