#usda 1.0
(
    defaultPrim = "POIMarkers"
    doc = "Toilet POI markers for Skandinavium. Generated from Data/pois.json by build_toilet_markers.py. The PointInstancer lives in DXF-local space (cm, Y-up); align by editing the ops on /POIMarkers."
    metersPerUnit = 0.01
    upAxis = "Y"
)

def Xform "POIMarkers"
{
    float xformOp:rotateY = 0
    float3 xformOp:scale = (1, 1, 1)
    double3 xformOp:translate = (0, 0, 0)
    uniform token[] xformOpOrder = ["xformOp:translate", "xformOp:rotateY", "xformOp:scale"]

    def Scope "Prototypes"
    {
        def Cube "ToiletCube"
        {
            color3f[] primvars:displayColor = [(1, 1, 1)]
            double size = 200
        }
    }

    def PointInstancer "ToiletInstancer"
    {
        int64[] ids = [0, 1, 2, 3, 4, 5, 6, 7, 8, 9, 10, 11, 12, 13, 14, 15, 16, 17, 18, 19, 20, 21, 22, 23, 24, 25, 26, 27, 28, 29]
        point3f[] positions = [(3991.986, 100, 2132.517), (2228.739, 100, 3108.25), (1583.075, 100, 3029.335), (1735.965, 100, 3075.675), (488.931, 100, 3465.946), (-884.295, 100, 3337.989), (540, 100, 3434.15), (2280, 100, 3134.15), (3960, 100, 2144.15), (1756.646, 100, 3027.919), (1610.771, 100, 3027.919), (-905.409, 100, -3620.539), (-715.676, 100, -3636.665), (-243.079, 100, -3345.052), (-6156.513, 100, -3235.139), (-2617.321, 100, -3074.17), (3290.827, 100, -2563.613), (-2660.418, 100, 3034.207), (-3861.969, 100, 1889.606), (-3895.857, 100, -1844.646), (5209.637, 100, -3380.205), (5106.794, 100, -2833.24), (7249.718, 100, 3072.533), (4652.638, 100, -2961.465), (7423.189, 100, 2491.976), (7165.365, 100, 2386.154), (6586.185, 100, 2522.367), (7508.834, 100, 3231.624), (7389.136, 100, -1149.271), (4595.987, 100, 952.073)]
        color3f[] primvars:displayColor = [(0.1, 0.85, 1), (1, 0.3, 0.65), (1, 0.85, 0.1), (1, 0.85, 0.1), (1, 0.3, 0.65), (0.3, 0.55, 1), (1, 0.3, 0.65), (1, 0.3, 0.65), (0.1, 0.85, 1), (1, 0.85, 0.1), (1, 0.85, 0.1), (0.1, 0.55, 1), (1, 0.85, 0.1), (1, 0.85, 0.1), (1, 0.85, 0.1), (1, 0.3, 0.65), (1, 0.3, 0.65), (1, 0.3, 0.65), (0.1, 0.85, 1), (0.1, 0.85, 1), (1, 0.85, 0.1), (0.65, 0.65, 0.65), (0.65, 0.65, 0.65), (0.1, 0.55, 1), (0.1, 0.55, 1), (0.65, 0.65, 0.65), (0.1, 0.55, 1), (1, 0.85, 0.1), (0.1, 0.55, 1), (1, 0.85, 0.1)] (
            interpolation = "vertex"
        )
        int[] protoIndices = [0, 0, 0, 0, 0, 0, 0, 0, 0, 0, 0, 0, 0, 0, 0, 0, 0, 0, 0, 0, 0, 0, 0, 0, 0, 0, 0, 0, 0, 0]
        rel prototypes = </POIMarkers/Prototypes/ToiletCube>
        custom string[] userProperties:poi_categories = ["restroom_accessible", "restroom_women", "restroom_generic", "restroom_generic", "restroom_women", "restroom_men", "restroom_women", "restroom_women", "restroom_accessible", "restroom_generic", "restroom_generic", "restroom_wheelchair", "restroom_generic", "restroom_generic", "restroom_generic", "restroom_women", "restroom_women", "restroom_women", "restroom_accessible", "restroom_accessible", "restroom_generic", "restroom_anteroom", "restroom_anteroom", "restroom_wheelchair", "restroom_wheelchair", "restroom_anteroom", "restroom_wheelchair", "restroom_generic", "restroom_wheelchair", "restroom_generic"]
        custom string[] userProperties:poi_labels = ["HWC", "DAMTOALETT", "WC", "WC", "DAMTOALETT", "HERRTOALETT", "DAMTOALETT", "DAMTOALETT", "HWC", "WC", "WC", "RWC", "TOALETT", "TOALETT", "WC", "DAMTOALETT", "DAMTOALETT", "DAMTOALETT", "HWC", "HWC", "WC ENTRÈH.", "FÖRRUM WC ENTRÈH.", "FÖRRUM WC K.ENTRÉ", "RWC ENTRÉHALL", "RWC K.ENTRÉ", "FÖRRUM WC K.ENTRÉ", "RWC", "WC K.ENTRÉ", "RWC", "WC"]
    }
}

