<svg width="24" height="24" viewBox="0 0 24 24" fill="none" xmlns="http://www.w3.org/2000/svg">
<path d="M21.75 11.9999V17.2499C21.75 17.8467 21.5129 18.419 21.091 18.8409C20.669 19.2629 20.0967 19.4999 19.5 19.4999H18C17.4033 19.4999 16.831 19.2629 16.409 18.8409C15.9871 18.419 15.75 17.8467 15.75 17.2499V13.4999C15.75 12.9032 15.9871 12.3309 16.409 11.9089C16.831 11.487 17.4033 11.2499 18 11.2499H20.2172C20.037 9.20815 19.1008 7.30726 17.592 5.91986C16.0832 4.53247 14.1106 3.75859 12.0609 3.74993H12C9.94173 3.74983 7.95776 4.51912 6.43759 5.90677C4.91742 7.29441 3.97087 9.20019 3.78375 11.2499H6C6.59674 11.2499 7.16903 11.487 7.59099 11.9089C8.01295 12.3309 8.25 12.9032 8.25 13.4999V17.2499C8.25 17.8467 8.01295 18.419 7.59099 18.8409C7.16903 19.2629 6.59674 19.4999 6 19.4999H4.5C3.90326 19.4999 3.33097 19.2629 2.90901 18.8409C2.48705 18.419 2.25 17.8467 2.25 17.2499V11.9999C2.2521 10.0686 2.82715 8.18128 3.90235 6.5769C4.97755 4.97252 6.50456 3.72319 8.29012 2.98704C10.0757 2.2509 12.0395 2.06104 13.933 2.4415C15.8265 2.82195 17.5646 3.75561 18.9272 5.12431C19.8268 6.02835 20.5393 7.10102 21.0237 8.28086C21.5081 9.46071 21.7549 10.7245 21.75 11.9999Z" fill="#351A84"/>
</svg>
